<?xml version="1.0" encoding="UTF-8" standalone="no"?>
<!DOCTYPE svg PUBLIC "-//W3C//DTD SVG 1.1//EN"
 "http://www.w3.org/Graphics/SVG/1.1/DTD/svg11.dtd">
<!-- Generated by graphviz version 2.38.0 (20140413.2041)
 -->
<!-- Title: G Pages: 1 -->
<svg width="438pt" height="132pt"
 viewBox="0.00 0.00 438.00 132.00" xmlns="http://www.w3.org/2000/svg" xmlns:xlink="http://www.w3.org/1999/xlink">
<g id="graph0" class="graph" transform="scale(1 1) rotate(0) translate(4 128)">
<title>G</title>
<polygon fill="white" stroke="none" points="-4,4 -4,-128 434,-128 434,4 -4,4"/>
<!-- source1 -->
<g id="node1" class="node"><title>source1</title>
<polygon fill="#caff70" stroke="black" points="35,-71.5 35,-123.5 114,-123.5 114,-71.5 35,-71.5"/>
<text text-anchor="middle" x="74.5" y="-106.7" font-family="Times,serif" font-size="16.00">source1</text>
<polyline fill="none" stroke="black" points="35,-97.5 114,-97.5 "/>
<text text-anchor="middle" x="45" y="-80.7" font-family="Times,serif" font-size="16.00"> </text>
<polyline fill="none" stroke="black" points="55,-71.5 55,-97.5 "/>
<text text-anchor="middle" x="84.5" y="-80.7" font-family="Times,serif" font-size="16.00">output</text>
</g>
<!-- addint -->
<g id="node3" class="node"><title>addint</title>
<polygon fill="#e5e5e5" stroke="black" points="185,-22.5 185,-100.5 324,-100.5 324,-22.5 185,-22.5"/>
<text text-anchor="middle" x="254.5" y="-83.7" font-family="Times,serif" font-size="16.00">addint</text>
<polyline fill="none" stroke="black" points="185,-74.5 324,-74.5 "/>
<text text-anchor="middle" x="228.5" y="-57.7" font-family="Times,serif" font-size="16.00">left_hand</text>
<polyline fill="none" stroke="black" points="185,-48.5 272,-48.5 "/>
<text text-anchor="middle" x="228.5" y="-31.7" font-family="Times,serif" font-size="16.00">right_hand</text>
<polyline fill="none" stroke="black" points="272,-22.5 272,-74.5 "/>
<text text-anchor="middle" x="298" y="-44.7" font-family="Times,serif" font-size="16.00">result</text>
</g>
<!-- source1&#45;&gt;addint -->
<g id="edge3" class="edge"><title>source1:output&#45;&gt;addint:left_hand</title>
<path fill="none" stroke="black" d="M115.5,-84.5C144.351,-84.5 151.1,-66.4158 174.943,-62.3186"/>
<polygon fill="black" stroke="black" points="175.317,-65.7998 185,-61.5 174.749,-58.8229 175.317,-65.7998"/>
</g>
<!-- const1 -->
<g id="node2" class="node"><title>const1</title>
<polygon fill="#ffbbff" stroke="black" points="0,-0.5 0,-52.5 149,-52.5 149,-0.5 0,-0.5"/>
<text text-anchor="middle" x="74.5" y="-35.7" font-family="Times,serif" font-size="16.00">const1</text>
<polyline fill="none" stroke="black" points="0,-26.5 149,-26.5 "/>
<text text-anchor="middle" x="74.5" y="-9.7" font-family="Times,serif" font-size="16.00">[[&#39;1&#39;], [&#39;3&#39;], [&#39;3&#39;], [&#39;7&#39;]]</text>
</g>
<!-- const1&#45;&gt;addint -->
<g id="edge2" class="edge"><title>const1:output&#45;&gt;addint:right_hand</title>
<path fill="none" stroke="black" d="M149,-13.5C163.649,-13.5 165.937,-26.9277 175.178,-32.8024"/>
<polygon fill="black" stroke="black" points="174.43,-36.2265 185,-35.5 176.284,-29.4765 174.43,-36.2265"/>
</g>
<!-- sink1 -->
<g id="node4" class="node"><title>sink1</title>
<polygon fill="#b0e2ff" stroke="black" points="360,-35.5 360,-87.5 430,-87.5 430,-35.5 360,-35.5"/>
<text text-anchor="middle" x="395" y="-70.7" font-family="Times,serif" font-size="16.00">sink1</text>
<polyline fill="none" stroke="black" points="360,-61.5 430,-61.5 "/>
<text text-anchor="middle" x="385" y="-44.7" font-family="Times,serif" font-size="16.00">input</text>
<polyline fill="none" stroke="black" points="410,-35.5 410,-61.5 "/>
<text text-anchor="middle" x="420" y="-44.7" font-family="Times,serif" font-size="16.00"> </text>
</g>
<!-- addint&#45;&gt;sink1 -->
<g id="edge1" class="edge"><title>addint:result&#45;&gt;sink1:input</title>
<path fill="none" stroke="black" d="M324,-48.5C336,-48.5 341.25,-48.5 349.875,-48.5"/>
<polygon fill="black" stroke="black" points="350,-52.0001 360,-48.5 350,-45.0001 350,-52.0001"/>
</g>
</g>
</svg>
