<?xml version="1.0" encoding="UTF-8" standalone="no"?>
<!DOCTYPE svg PUBLIC "-//W3C//DTD SVG 1.1//EN"
 "http://www.w3.org/Graphics/SVG/1.1/DTD/svg11.dtd">
<!-- Generated by graphviz version 2.36.0 (20140111.2315)
 -->
<!-- Title: G Pages: 1 -->
<svg width="698pt" height="463pt"
 viewBox="0.00 0.00 698.00 463.00" xmlns="http://www.w3.org/2000/svg" xmlns:xlink="http://www.w3.org/1999/xlink">
<g id="graph0" class="graph" transform="scale(1 1) rotate(0) translate(4 459)">
<title>G</title>
<polygon fill="white" stroke="none" points="-4,4 -4,-459 694,-459 694,4 -4,4"/>
<!-- fixed_img -->
<g id="node1" class="node"><title>fixed_img</title>
<polygon fill="#caff70" stroke="black" points="8,-403 8,-455 88,-455 88,-403 8,-403"/>
<text text-anchor="middle" x="48" y="-438.2" font-family="Times,serif" font-size="16.00">fixed_img</text>
<polyline fill="none" stroke="black" points="8,-429 88,-429 "/>
<text text-anchor="middle" x="18.5" y="-412.2" font-family="Times,serif" font-size="16.00"> </text>
<polyline fill="none" stroke="black" points="29,-403 29,-429 "/>
<text text-anchor="middle" x="58.5" y="-412.2" font-family="Times,serif" font-size="16.00">output</text>
</g>
<!-- elastix -->
<g id="node5" class="node"><title>elastix</title>
<polygon fill="#e5e5e5" stroke="black" points="132,-154 132,-388 328,-388 328,-154 132,-154"/>
<text text-anchor="middle" x="230" y="-371.2" font-family="Times,serif" font-size="16.00">elastix</text>
<polyline fill="none" stroke="black" points="132,-362 328,-362 "/>
<text text-anchor="middle" x="191.5" y="-345.2" font-family="Times,serif" font-size="16.00">fixed</text>
<polyline fill="none" stroke="black" points="132,-336 251,-336 "/>
<text text-anchor="middle" x="191.5" y="-319.2" font-family="Times,serif" font-size="16.00">moving</text>
<polyline fill="none" stroke="black" points="132,-310 251,-310 "/>
<text text-anchor="middle" x="191.5" y="-293.2" font-family="Times,serif" font-size="16.00">parameters</text>
<polyline fill="none" stroke="black" points="132,-284 251,-284 "/>
<text text-anchor="middle" x="191.5" y="-267.2" font-family="Times,serif" font-size="16.00">fixedMask</text>
<polyline fill="none" stroke="black" points="132,-258 251,-258 "/>
<text text-anchor="middle" x="191.5" y="-241.2" font-family="Times,serif" font-size="16.00">movingMask</text>
<polyline fill="none" stroke="black" points="132,-232 251,-232 "/>
<text text-anchor="middle" x="191.5" y="-215.2" font-family="Times,serif" font-size="16.00">initialTransform</text>
<polyline fill="none" stroke="black" points="132,-206 251,-206 "/>
<text text-anchor="middle" x="191.5" y="-189.2" font-family="Times,serif" font-size="16.00">priority</text>
<polyline fill="none" stroke="black" points="132,-180 251,-180 "/>
<text text-anchor="middle" x="191.5" y="-163.2" font-family="Times,serif" font-size="16.00">threads</text>
<polyline fill="none" stroke="black" points="251,-154 251,-362 "/>
<text text-anchor="middle" x="289.5" y="-323.7" font-family="Times,serif" font-size="16.00">directory</text>
<polyline fill="none" stroke="black" points="251,-293 328,-293 "/>
<text text-anchor="middle" x="289.5" y="-254.7" font-family="Times,serif" font-size="16.00">transform</text>
<polyline fill="none" stroke="black" points="251,-224 328,-224 "/>
<text text-anchor="middle" x="289.5" y="-185.2" font-family="Times,serif" font-size="16.00">log</text>
</g>
<!-- fixed_img&#45;&gt;elastix -->
<g id="edge1" class="edge"><title>fixed_img:output&#45;&gt;elastix:fixed</title>
<path fill="none" stroke="black" d="M89,-416C120.375,-416 102.097,-363.32 122.223,-351.385"/>
<polygon fill="black" stroke="black" points="123.114,-354.77 132,-349 121.455,-347.969 123.114,-354.77"/>
</g>
<!-- moving_img -->
<g id="node2" class="node"><title>moving_img</title>
<polygon fill="#caff70" stroke="black" points="0,-332 0,-384 96,-384 96,-332 0,-332"/>
<text text-anchor="middle" x="48" y="-367.2" font-family="Times,serif" font-size="16.00">moving_img</text>
<polyline fill="none" stroke="black" points="0,-358 96,-358 "/>
<text text-anchor="middle" x="14.5" y="-341.2" font-family="Times,serif" font-size="16.00"> </text>
<polyline fill="none" stroke="black" points="29,-332 29,-358 "/>
<text text-anchor="middle" x="62.5" y="-341.2" font-family="Times,serif" font-size="16.00">output</text>
</g>
<!-- transformix -->
<g id="node4" class="node"><title>transformix</title>
<polygon fill="#e5e5e5" stroke="black" points="364,-0 364,-208 566,-208 566,-0 364,-0"/>
<text text-anchor="middle" x="465" y="-191.2" font-family="Times,serif" font-size="16.00">transformix</text>
<polyline fill="none" stroke="black" points="364,-182 566,-182 "/>
<text text-anchor="middle" x="411.5" y="-165.2" font-family="Times,serif" font-size="16.00">transform</text>
<polyline fill="none" stroke="black" points="364,-156 459,-156 "/>
<text text-anchor="middle" x="411.5" y="-139.2" font-family="Times,serif" font-size="16.00">input_image</text>
<polyline fill="none" stroke="black" points="364,-130 459,-130 "/>
<text text-anchor="middle" x="411.5" y="-113.2" font-family="Times,serif" font-size="16.00">input_points</text>
<polyline fill="none" stroke="black" points="364,-104 459,-104 "/>
<text text-anchor="middle" x="411.5" y="-87.2" font-family="Times,serif" font-size="16.00">detjac</text>
<polyline fill="none" stroke="black" points="364,-78 459,-78 "/>
<text text-anchor="middle" x="411.5" y="-61.2" font-family="Times,serif" font-size="16.00">jacmat</text>
<polyline fill="none" stroke="black" points="364,-52 459,-52 "/>
<text text-anchor="middle" x="411.5" y="-35.2" font-family="Times,serif" font-size="16.00">priority</text>
<polyline fill="none" stroke="black" points="364,-26 459,-26 "/>
<text text-anchor="middle" x="411.5" y="-9.2" font-family="Times,serif" font-size="16.00">threads</text>
<polyline fill="none" stroke="black" points="459,-0 459,-182 "/>
<text text-anchor="middle" x="512.5" y="-163.2" font-family="Times,serif" font-size="16.00">directory</text>
<polyline fill="none" stroke="black" points="459,-152 566,-152 "/>
<text text-anchor="middle" x="512.5" y="-133.2" font-family="Times,serif" font-size="16.00">output_image</text>
<polyline fill="none" stroke="black" points="459,-122 566,-122 "/>
<text text-anchor="middle" x="512.5" y="-102.7" font-family="Times,serif" font-size="16.00">output_points</text>
<polyline fill="none" stroke="black" points="459,-91 566,-91 "/>
<text text-anchor="middle" x="512.5" y="-72.2" font-family="Times,serif" font-size="16.00">output_jac</text>
<polyline fill="none" stroke="black" points="459,-61 566,-61 "/>
<text text-anchor="middle" x="512.5" y="-42.2" font-family="Times,serif" font-size="16.00">output_jacmat</text>
<polyline fill="none" stroke="black" points="459,-31 566,-31 "/>
<text text-anchor="middle" x="512.5" y="-11.7" font-family="Times,serif" font-size="16.00">log</text>
</g>
<!-- moving_img&#45;&gt;transformix -->
<g id="edge5" class="edge"><title>moving_img:output&#45;&gt;transformix:input_image</title>
<path fill="none" stroke="black" d="M96,-345C186.755,-345 62.525,-202.392 132,-144 208.314,-79.8598 257.539,-138.806 353.902,-142.791"/>
<polygon fill="black" stroke="black" points="353.93,-146.292 364,-143 354.075,-139.294 353.93,-146.292"/>
</g>
<!-- moving_img&#45;&gt;elastix -->
<g id="edge2" class="edge"><title>moving_img:output&#45;&gt;elastix:moving</title>
<path fill="none" stroke="black" d="M96,-345C110.649,-345 112.937,-331.572 122.178,-325.698"/>
<polygon fill="black" stroke="black" points="123.284,-329.024 132,-323 121.43,-322.274 123.284,-329.024"/>
</g>
<!-- param_file -->
<g id="node3" class="node"><title>param_file</title>
<polygon fill="#caff70" stroke="black" points="6,-261 6,-313 90,-313 90,-261 6,-261"/>
<text text-anchor="middle" x="48" y="-296.2" font-family="Times,serif" font-size="16.00">param_file</text>
<polyline fill="none" stroke="black" points="6,-287 90,-287 "/>
<text text-anchor="middle" x="17.5" y="-270.2" font-family="Times,serif" font-size="16.00"> </text>
<polyline fill="none" stroke="black" points="29,-261 29,-287 "/>
<text text-anchor="middle" x="59.5" y="-270.2" font-family="Times,serif" font-size="16.00">output</text>
</g>
<!-- param_file&#45;&gt;elastix -->
<g id="edge3" class="edge"><title>param_file:output&#45;&gt;elastix:parameters</title>
<path fill="none" stroke="blue" stroke-width="3" d="M91,-274C107.813,-274 110.587,-288.893 121.916,-294.711"/>
<polygon fill="blue" stroke="blue" stroke-width="3" points="121.473,-298.199 132,-297 123.023,-291.373 121.473,-298.199"/>
</g>
<!-- sink_image -->
<g id="node7" class="node"><title>sink_image</title>
<polygon fill="#b0e2ff" stroke="black" points="602,-124 602,-176 690,-176 690,-124 602,-124"/>
<text text-anchor="middle" x="646" y="-159.2" font-family="Times,serif" font-size="16.00">sink_image</text>
<polyline fill="none" stroke="black" points="602,-150 690,-150 "/>
<text text-anchor="middle" x="631" y="-133.2" font-family="Times,serif" font-size="16.00">input</text>
<polyline fill="none" stroke="black" points="660,-124 660,-150 "/>
<text text-anchor="middle" x="675" y="-133.2" font-family="Times,serif" font-size="16.00"> </text>
</g>
<!-- transformix&#45;&gt;sink_image -->
<g id="edge7" class="edge"><title>transformix:output_image&#45;&gt;sink_image:input</title>
<path fill="none" stroke="black" d="M566,-137C578,-137 583.25,-137 591.875,-137"/>
<polygon fill="black" stroke="black" points="592,-140.5 602,-137 592,-133.5 592,-140.5"/>
</g>
<!-- elastix&#45;&gt;transformix -->
<g id="edge6" class="edge"><title>elastix:transform&#45;&gt;transformix:transform</title>
<path fill="none" stroke="black" d="M328,-258C366.502,-258 330.09,-185.534 353.96,-171.381"/>
<polygon fill="black" stroke="black" points="355.077,-174.713 364,-169 353.462,-167.902 355.077,-174.713"/>
</g>
<!-- sink_trans -->
<g id="node6" class="node"><title>sink_trans</title>
<polygon fill="#b0e2ff" stroke="black" points="425,-245 425,-297 505,-297 505,-245 425,-245"/>
<text text-anchor="middle" x="465" y="-280.2" font-family="Times,serif" font-size="16.00">sink_trans</text>
<polyline fill="none" stroke="black" points="425,-271 505,-271 "/>
<text text-anchor="middle" x="452" y="-254.2" font-family="Times,serif" font-size="16.00">input</text>
<polyline fill="none" stroke="black" points="479,-245 479,-271 "/>
<text text-anchor="middle" x="492" y="-254.2" font-family="Times,serif" font-size="16.00"> </text>
</g>
<!-- elastix&#45;&gt;sink_trans -->
<g id="edge4" class="edge"><title>elastix:transform&#45;&gt;sink_trans:input</title>
<path fill="none" stroke="black" d="M328,-258C367,-258 379.264,-258 413.668,-258"/>
<polygon fill="black" stroke="black" points="414,-261.5 424,-258 414,-254.5 414,-261.5"/>
</g>
</g>
</svg>
